<svg width="16" height="19" viewBox="0 0 16 19" fill="none" xmlns="http://www.w3.org/2000/svg">
<path d="M5.35206 1.968C4.34406 2 3.56806 2.384 3.02406 3.12C2.49606 3.856 2.23206 5.128 2.23206 6.936C2.23206 7.528 2.28806 7.944 2.40006 8.184C2.51206 8.408 2.56806 8.536 2.56806 8.568C1.70406 8.568 1.05606 8.392 0.624058 8.04C0.208058 7.672 5.76302e-05 7.072 5.76302e-05 6.24C5.76302e-05 5.104 0.280058 4.072 0.840058 3.144C1.40006 2.2 2.28806 1.44 3.50406 0.863999C4.73606 0.287999 6.29606 -1.43051e-06 8.18406 -1.43051e-06C8.56806 -1.43051e-06 9.08006 0.0399985 9.72006 0.119998C10.8721 0.231999 11.6881 0.287999 12.1681 0.287999C13.0161 0.287999 13.7361 0.191999 14.3281 -1.43051e-06C14.2801 0.143999 14.1921 0.463999 14.0641 0.959999C13.9361 1.44 13.7041 1.856 13.3681 2.208C13.0481 2.544 12.6081 2.768 12.0481 2.88C11.1041 2.88 9.98406 2.728 8.68806 2.424L7.68006 7.2H11.1841L10.8001 8.976H7.29606L5.35206 18H1.89606L5.35206 1.968Z" fill="black"/>
<path d="M13.4397 18.096C12.9117 18.096 12.4637 17.912 12.0957 17.544C11.7277 17.176 11.5437 16.728 11.5437 16.2C11.5437 15.672 11.7277 15.224 12.0957 14.856C12.4637 14.472 12.9117 14.28 13.4397 14.28C13.9677 14.28 14.4157 14.472 14.7837 14.856C15.1677 15.224 15.3597 15.672 15.3597 16.2C15.3597 16.728 15.1677 17.176 14.7837 17.544C14.4157 17.912 13.9677 18.096 13.4397 18.096Z" fill="#FF7426"/>
</svg>
